<mxfile host="app.diagrams.net" modified="2022-12-12T15:09:45.134Z" agent="5.0 (Macintosh; Intel Mac OS X 10_15_7) AppleWebKit/605.1.15 (KHTML, like Gecko) Version/16.1 Safari/605.1.15" etag="c4wpuNcHDqMcNsdsNh5s" version="20.6.2" type="github">
  <diagram id="dNGoZVBXWK_xDTCqt4oQ" name="Страница 1">
    <mxGraphModel dx="633" dy="584" grid="1" gridSize="10" guides="1" tooltips="1" connect="1" arrows="1" fold="1" page="1" pageScale="1" pageWidth="827" pageHeight="1169" math="0" shadow="0">
      <root>
        <mxCell id="0" />
        <mxCell id="1" parent="0" />
        <mxCell id="2lZdXUqtQVFPykAteh2_-8" value="" style="edgeStyle=orthogonalEdgeStyle;rounded=0;orthogonalLoop=1;jettySize=auto;html=1;" parent="1" source="2lZdXUqtQVFPykAteh2_-1" target="2lZdXUqtQVFPykAteh2_-2" edge="1">
          <mxGeometry relative="1" as="geometry" />
        </mxCell>
        <mxCell id="2lZdXUqtQVFPykAteh2_-1" value="SecondArray" style="rounded=1;whiteSpace=wrap;html=1;" parent="1" vertex="1">
          <mxGeometry x="270" y="60" width="120" height="60" as="geometry" />
        </mxCell>
        <mxCell id="2lZdXUqtQVFPykAteh2_-9" value="" style="edgeStyle=orthogonalEdgeStyle;rounded=0;orthogonalLoop=1;jettySize=auto;html=1;" parent="1" source="2lZdXUqtQVFPykAteh2_-2" target="2lZdXUqtQVFPykAteh2_-4" edge="1">
          <mxGeometry relative="1" as="geometry" />
        </mxCell>
        <mxCell id="2lZdXUqtQVFPykAteh2_-2" value="string[] array1&lt;br&gt;string[] array2&lt;br&gt;int count = 0" style="shape=parallelogram;perimeter=parallelogramPerimeter;whiteSpace=wrap;html=1;fixedSize=1;" parent="1" vertex="1">
          <mxGeometry x="270" y="150" width="120" height="60" as="geometry" />
        </mxCell>
        <mxCell id="2lZdXUqtQVFPykAteh2_-11" value="" style="edgeStyle=orthogonalEdgeStyle;rounded=0;orthogonalLoop=1;jettySize=auto;html=1;" parent="1" source="2lZdXUqtQVFPykAteh2_-4" target="2lZdXUqtQVFPykAteh2_-10" edge="1">
          <mxGeometry relative="1" as="geometry" />
        </mxCell>
        <mxCell id="2lZdXUqtQVFPykAteh2_-4" value="forint I = 0;&lt;br&gt;I&amp;lt;array1&amp;gt;length;&lt;br&gt;I++)" style="shape=hexagon;perimeter=hexagonPerimeter2;whiteSpace=wrap;html=1;fixedSize=1;" parent="1" vertex="1">
          <mxGeometry x="270" y="240" width="120" height="80" as="geometry" />
        </mxCell>
        <mxCell id="2lZdXUqtQVFPykAteh2_-10" value="if(array1[I].Length&amp;lt;=3" style="rhombus;whiteSpace=wrap;html=1;" parent="1" vertex="1">
          <mxGeometry x="244" y="360" width="170" height="80" as="geometry" />
        </mxCell>
        <mxCell id="2lZdXUqtQVFPykAteh2_-15" value="" style="edgeStyle=orthogonalEdgeStyle;rounded=0;orthogonalLoop=1;jettySize=auto;html=1;" parent="1" source="2lZdXUqtQVFPykAteh2_-12" target="2lZdXUqtQVFPykAteh2_-4" edge="1">
          <mxGeometry relative="1" as="geometry" />
        </mxCell>
        <mxCell id="2lZdXUqtQVFPykAteh2_-12" value="array2[count]=array1[I]&lt;br&gt;count++" style="rounded=0;whiteSpace=wrap;html=1;" parent="1" vertex="1">
          <mxGeometry x="40" y="250" width="140" height="60" as="geometry" />
        </mxCell>
        <mxCell id="2lZdXUqtQVFPykAteh2_-13" value="Yes" style="endArrow=classic;html=1;rounded=0;entryX=0.5;entryY=1;entryDx=0;entryDy=0;" parent="1" target="2lZdXUqtQVFPykAteh2_-12" edge="1">
          <mxGeometry width="50" height="50" relative="1" as="geometry">
            <mxPoint x="240" y="400" as="sourcePoint" />
            <mxPoint x="270" y="280" as="targetPoint" />
            <Array as="points">
              <mxPoint x="110" y="400" />
            </Array>
          </mxGeometry>
        </mxCell>
        <mxCell id="2lZdXUqtQVFPykAteh2_-14" value="No" style="endArrow=classic;html=1;rounded=0;entryX=0.125;entryY=0.875;entryDx=0;entryDy=0;entryPerimeter=0;" parent="1" target="2lZdXUqtQVFPykAteh2_-4" edge="1">
          <mxGeometry width="50" height="50" relative="1" as="geometry">
            <mxPoint x="240" y="400" as="sourcePoint" />
            <mxPoint x="270" y="280" as="targetPoint" />
            <Array as="points">
              <mxPoint x="240" y="310" />
            </Array>
          </mxGeometry>
        </mxCell>
      </root>
    </mxGraphModel>
  </diagram>
</mxfile>
